<svg aria-hidden="true" style="position: absolute; width: 0; height: 0; overflow: hidden;" version="1.1" xmlns="http://www.w3.org/2000/svg" xmlns:xlink="http://www.w3.org/1999/xlink">
<defs>
<symbol id="icon-mobile-screen" viewBox="0 0 21 32">
<path fill="#02897a" style="fill: var(--color1, #02897a)" d="M16.935 2.286h-13.299c-1.377 0-2.494 1.152-2.494 2.571v22.286c0 1.42 1.117 2.571 2.494 2.571h13.299c1.377 0 2.494-1.152 2.494-2.571v-22.286c0-1.42-1.117-2.571-2.494-2.571zM12.779 26.238c0 0.52-0.374 0.905-0.831 0.905h-3.371c-0.41 0-0.784-0.386-0.784-0.857s0.374-0.857 0.831-0.857h3.325c0.457 0 0.831 0.386 0.831 0.809zM16.104 22.857h-11.636v-17.143h11.636v17.143z"></path>
</symbol>
</defs>
</svg>
