<svg aria-hidden="true" style="position: absolute; width: 0; height: 0; overflow: hidden;" version="1.1" xmlns="http://www.w3.org/2000/svg" xmlns:xlink="http://www.w3.org/1999/xlink">
<defs>
<symbol id="icon-icon" viewBox="0 0 32 32">
<path fill="#02897a" style="fill: var(--color1, #02897a)" d="M12.69 0h6.621c5.789 0 10.483 4.693 10.483 10.483v6.621c0 5.789-4.693 10.483-10.483 10.483h-6.621c-5.789 0-10.483-4.693-10.483-10.483v-6.621c0-5.789 4.693-10.483 10.483-10.483z"></path>
<path fill="#fff" style="fill: var(--color2, #fff)" d="M18.271 14.675l-5.044-5.044c-0.059-0.064-0.138-0.094-0.222-0.094-0.039 0-0.084 0.010-0.118 0.025-0.118 0.049-0.197 0.163-0.197 0.291v7.409c0 0.128 0.079 0.241 0.197 0.291 0.034 0.015 0.079 0.025 0.118 0.025 0.084 0 0.163-0.034 0.222-0.094l1.537-1.537 0.941 2.227c0.069 0.158 0.251 0.236 0.414 0.168l0.872-0.369c0.158-0.069 0.236-0.251 0.168-0.414l-0.99-2.345h1.882c0.128 0 0.241-0.079 0.291-0.197 0.049-0.113 0.025-0.251-0.069-0.34z"></path>
</symbol>
<symbol id="icon-icon-3" viewBox="0 0 32 32">
<path fill="#f03e3d" style="fill: var(--color3, #f03e3d)" d="M12.69 0h6.621c5.789 0 10.483 4.693 10.483 10.483v6.621c0 5.789-4.693 10.483-10.483 10.483h-6.621c-5.789 0-10.483-4.693-10.483-10.483v-6.621c0-5.789 4.693-10.483 10.483-10.483z"></path>
<path fill="#fff" style="fill: var(--color2, #fff)" d="M16 18.286c0.079 0 0.158-0.030 0.217-0.089l3.069-2.956c0.044-0.044 1.128-1.034 1.128-2.217 0-1.443-0.882-2.305-2.355-2.305-0.862 0-1.67 0.68-2.059 1.064-0.389-0.384-1.197-1.064-2.059-1.064-1.473 0-2.355 0.862-2.355 2.305 0 1.182 1.084 2.172 1.123 2.207l3.074 2.966c0.059 0.059 0.138 0.089 0.217 0.089z"></path>
</symbol>
<symbol id="icon-icon-2" viewBox="0 0 32 32">
<path fill="#4d8dff" style="fill: var(--color4, #4d8dff)" d="M12.69 0h6.621c5.789 0 10.483 4.693 10.483 10.483v6.621c0 5.789-4.693 10.483-10.483 10.483h-6.621c-5.789 0-10.483-4.693-10.483-10.483v-6.621c0-5.789 4.693-10.483 10.483-10.483z"></path>
<path fill="#fff" style="fill: var(--color2, #fff)" d="M16.266 13.596l0.645 0.3 0.961-0.286v-0.67c0-1.138-0.961-2.049-2.108-2.049-1.143 0-2.108 0.906-2.108 2.034v3.054c0 0.281-0.227 0.502-0.502 0.502s-0.502-0.222-0.502-0.502v-1.291h-1.616c0 1.296 0 1.31 0 1.31 0 1.167 0.946 2.113 2.113 2.113 1.158 0 2.113-0.931 2.113-2.084v-3.015c0-0.276 0.227-0.502 0.502-0.502s0.502 0.227 0.502 0.502v0.581zM18.877 14.69v1.355c0 0.276-0.227 0.497-0.502 0.497s-0.502-0.222-0.502-0.497v-1.33l-0.961 0.286-0.645-0.3v1.32c0 1.158 0.951 2.094 2.113 2.094 1.168 0 2.113-0.946 2.113-2.113 0 0 0-0.015 0-1.31h-1.616z"></path>
</symbol>
</defs>
</svg>
